<svg width="20" height="20" viewBox="0 0 20 20" fill="none" xmlns="http://www.w3.org/2000/svg">
<path d="M17.4559 6.92104C17.4467 6.29021 17.3301 5.66437 17.1067 5.07437C16.7159 4.06688 15.9201 3.27021 14.9126 2.88021C14.3301 2.66104 13.7142 2.54354 13.0909 2.53021C12.2892 2.49438 12.0351 2.48438 10.0001 2.48438C7.96506 2.48438 7.70423 2.48438 6.90839 2.53021C6.28589 2.54354 5.67006 2.66104 5.08756 2.88021C4.08006 3.27021 3.28339 4.06688 2.89339 5.07437C2.67423 5.65687 2.55589 6.27271 2.54423 6.89521C2.50839 7.69771 2.49756 7.95187 2.49756 9.98687C2.49756 12.0219 2.49756 12.2819 2.54423 13.0785C2.55673 13.7019 2.67423 14.3169 2.89339 14.901C3.28423 15.9077 4.08006 16.7044 5.08839 17.0944C5.66839 17.321 6.28423 17.4494 6.90923 17.4694C7.71173 17.5052 7.96589 17.516 10.0009 17.516C12.0359 17.516 12.2967 17.516 13.0926 17.4694C13.7151 17.4569 14.3309 17.3394 14.9142 17.1202C15.9217 16.7294 16.7176 15.9327 17.1084 14.926C17.3276 14.3427 17.4451 13.7277 17.4576 13.1035C17.4934 12.3019 17.5042 12.0477 17.5042 10.0119C17.5026 7.97687 17.5026 7.71854 17.4559 6.92104ZM9.99506 13.8352C7.86673 13.8352 6.14256 12.111 6.14256 9.98271C6.14256 7.85437 7.86673 6.13021 9.99506 6.13021C12.1217 6.13021 13.8476 7.85437 13.8476 9.98271C13.8476 12.111 12.1217 13.8352 9.99506 13.8352ZM14.0009 6.88604C13.5034 6.88604 13.1026 6.48437 13.1026 5.98771C13.1026 5.49104 13.5034 5.08937 14.0009 5.08937C14.4967 5.08937 14.8984 5.49104 14.8984 5.98771C14.8984 6.48437 14.4967 6.88604 14.0009 6.88604Z" fill="#33354D"/>
<path d="M9.99518 12.4852C11.3773 12.4852 12.4977 11.3648 12.4977 9.98272C12.4977 8.60063 11.3773 7.48022 9.99518 7.48022C8.61308 7.48022 7.49268 8.60063 7.49268 9.98272C7.49268 11.3648 8.61308 12.4852 9.99518 12.4852Z" fill="#33354D"/>
</svg>
