<svg width="20" height="20" viewBox="0 0 20 20" fill="none" xmlns="http://www.w3.org/2000/svg">
<path d="M17.994 6.00283C17.8023 5.28783 17.2398 4.72366 16.5256 4.53117C15.2206 4.17283 9.99979 4.167 9.99979 4.167C9.99979 4.167 4.77979 4.16117 3.47395 4.50367C2.77395 4.6945 2.19562 5.27117 2.00229 5.98533C1.65812 7.29033 1.65479 9.997 1.65479 9.997C1.65479 9.997 1.65145 12.717 1.99312 14.0087C2.18479 14.7228 2.74729 15.287 3.46229 15.4795C4.78062 15.8378 9.98729 15.8437 9.98729 15.8437C9.98729 15.8437 15.2081 15.8495 16.5131 15.5078C17.2265 15.3162 17.7915 14.7528 17.9856 14.0387C18.3306 12.7345 18.3331 10.0287 18.3331 10.0287C18.3331 10.0287 18.3498 7.30783 17.994 6.00283ZM8.32979 12.5045L8.33395 7.5045L12.6731 10.0087L8.32979 12.5045Z" fill="#33354D"/>
</svg>
