<svg width="20" height="20" viewBox="0 0 20 20" fill="none" xmlns="http://www.w3.org/2000/svg">
<path d="M16.3607 6.66437C16.3715 6.8102 16.3715 6.9552 16.3715 7.1002C16.3715 11.5377 12.994 16.651 6.8215 16.651C4.91984 16.651 3.15317 16.1002 1.6665 15.1435C1.9365 15.1744 2.1965 15.1852 2.47734 15.1852C4.0465 15.1852 5.49067 14.6552 6.64484 13.751C5.169 13.7202 3.93234 12.7535 3.50567 11.4235C3.71317 11.4544 3.9215 11.4752 4.13984 11.4752C4.44067 11.4752 4.74317 11.4335 5.024 11.361C3.48484 11.0494 2.33234 9.69853 2.33234 8.06686V8.0252C2.77984 8.27436 3.299 8.4302 3.849 8.45103C2.94484 7.84936 2.35234 6.8202 2.35234 5.65603C2.35234 5.0327 2.51817 4.46103 2.809 3.9627C4.4615 5.99853 6.94567 7.32937 9.73067 7.4752C9.679 7.2252 9.64734 6.96603 9.64734 6.70603C9.64734 4.85603 11.144 3.34937 13.004 3.34937C13.9707 3.34937 14.8432 3.75437 15.4565 4.40936C16.2148 4.26353 16.9415 3.9827 17.5865 3.59853C17.3373 4.3777 16.8065 5.0327 16.1107 5.44853C16.7865 5.3752 17.4415 5.18853 18.0432 4.92853C17.5865 5.59353 17.0157 6.18603 16.3607 6.66437Z" fill="#33354D"/>
</svg>
