<svg width="20" height="20" viewBox="0 0 20 20" fill="currentColor" xmlns="http://www.w3.org/2000/svg">
<path d="M16.6667 2.50024H3.33333C2.8725 2.50024 2.5 2.87358 2.5 3.33358V16.6669C2.5 17.1269 2.8725 17.5002 3.33333 17.5002H10.5125V11.7002H8.56417V9.42941H10.5125V7.76274C10.5125 5.82524 11.6958 4.76941 13.4292 4.76941C14.0117 4.76774 14.595 4.79774 15.175 4.85858V6.87524H13.9792C13.0392 6.87524 12.8558 7.32358 12.8558 7.97941V9.42524H15.1033L14.8117 11.6961H12.855V17.5002H16.6667C17.1275 17.5002 17.5 17.1269 17.5 16.6669V3.33358C17.5 2.87358 17.1275 2.50024 16.6667 2.50024Z" fill="#33354D"/>
</svg>
